<svg width="168" height="20" viewBox="0 0 168 20" fill="none" xmlns="http://www.w3.org/2000/svg">
<g clip-path="url(#clip0_3088_321)">
<path d="M23.0917 8.66452L23.1641 8.86162L23.2889 9.03459L23.3774 9.22767L23.474 9.41271L23.6229 9.53741L23.7718 9.57763L23.9368 9.62188L24.0575 9.73853L24.2668 9.81094L24.464 9.8753L24.6692 9.90346L24.798 9.84714L24.9469 9.81898L25.1038 9.78278L25.3091 9.69428L25.454 9.52132L25.631 9.39259L25.7477 9.19951L25.9007 9.04666V8.87771L25.9731 8.72486L25.9972 8.56798L26.0375 8.41512L26.0254 8.24617L25.9852 8.04103L25.957 7.82783L25.8725 7.63073L25.7075 7.47787L25.6874 7.34111L25.5183 7.20032L25.3413 7.09975L25.128 7.06355L24.9227 7.03137L24.7135 6.96299L24.5163 6.91472L24.3754 6.90265L24.2467 7.01528L24.0374 7.07964L23.8684 7.22445L23.6873 7.34513L23.4941 7.43362L23.3331 7.56234L23.2526 7.75945L23.148 7.95655L23.1118 8.10136L23.0394 8.24617L23.0715 8.45937L23.0836 8.66452H23.0917ZM19.5905 19.823L19.7474 19.8753L19.9607 19.7788L20.174 19.831L20.3833 19.823L20.5926 19.7466L20.7978 19.7144L21.0191 19.7828L21.2284 19.7506L21.4256 19.6742L21.6429 19.6822L21.82 19.4932L22.0172 19.4449L22.2345 19.465L22.4558 19.457L22.6409 19.3363L22.7818 19.1593L22.9991 19.1271L23.152 18.9702L23.3653 18.9099L23.5464 18.7771L23.7557 18.6846L23.8603 18.4553L24.0052 18.3709L24.1501 18.222L24.3312 18.1134L24.5123 18.0048L24.6571 17.864L24.7819 17.6669L24.8302 17.5302L24.8905 17.3693L25.0555 17.2204L25.1602 17.0434L25.3131 16.8785V16.7619L25.4016 16.6251L25.5264 16.4481L25.4781 16.2269L25.4902 16.0096L25.462 15.7924L25.3614 15.5953L25.2487 15.4022L25.2326 15.1891L25.132 15.1046L24.9791 15.0483L24.8905 14.8793L24.6732 14.8351L24.468 14.827L24.2386 14.8431L24.1259 14.8874L23.9851 15.0282L23.9126 15.1931L23.812 15.2816L23.7476 15.4747L23.6993 15.6878L23.5021 15.8246L23.5223 16.0217L23.5706 16.2188L23.5545 16.436L23.7557 16.6171L23.6873 16.7337L23.7275 16.8906V17.0595L23.7154 17.2084L23.651 17.3532L23.5786 17.5503L23.4378 17.7031L23.2607 17.8158L23.2164 18.0491L22.987 18.1175L22.8341 18.2703L22.645 18.387L22.4558 18.4875L22.2828 18.6082L22.1178 18.7852H21.8683L21.6791 18.8777L21.486 18.9743L21.3129 19.0708L21.1238 19.1311L20.9507 19.2397L20.7495 19.2759L20.4839 19.3081L20.3591 19.288L20.2223 19.3644L20.0855 19.4529L19.8641 19.5012L19.6468 19.4047L19.4295 19.3644L19.2001 19.3483L18.9909 19.4006L18.7736 19.4208L18.6367 19.4127L18.4999 19.5776L18.2826 19.6018L18.0572 19.4972L17.8761 19.6018L17.7634 19.5092L17.5904 19.5656H17.4294L17.2805 19.5133L17.1155 19.5977L16.9747 19.4489L16.8016 19.5535L16.6004 19.4006L16.375 19.4891L16.1899 19.3564L15.9605 19.461L15.7674 19.2961L15.5621 19.3041H15.3448L15.1476 19.2558L14.9424 19.2196L14.7492 19.115L14.548 19.0668L14.3226 19.115L14.1375 19.0064L13.9242 18.9783L13.7472 18.8536L13.5178 18.8817L13.3206 18.8294L13.232 18.6645L13.059 18.7047L12.8859 18.7369L12.7692 18.5881L12.6042 18.58L12.4352 18.5519L12.2783 18.568L12.1334 18.4714L11.9966 18.4151H11.8195L11.6746 18.3508L11.5297 18.2623L11.3728 18.2422L11.236 18.1376L11.0428 18.214L10.8577 18.0893L10.6404 18.0732L10.4794 17.9043L10.2581 17.8801L10.081 17.7554L9.86367 17.7353L9.65038 17.7072L9.45319 17.5985L9.29221 17.4618L9.07892 17.4336L8.89783 17.2928L8.69258 17.2486L8.49942 17.1762L8.33442 17.0233L8.08893 17.0394L7.93601 16.8825L7.77504 16.7297L7.58992 16.613L7.38065 16.5768L7.19553 16.4722L7.02651 16.3395L6.83334 16.259L6.6281 16.1706L6.47518 16.0177L6.33432 15.8447L6.15725 15.8528L6.04055 15.7401L5.91579 15.6436L5.74275 15.6154L5.62604 15.4988L5.51738 15.3781L5.43287 15.2333L5.31617 15.1368L5.16324 15.0724L5.05056 14.9598L4.86946 14.8471L4.75678 14.6621L4.61996 14.4891L4.43886 14.3886L4.3302 14.1874L4.13703 14.0829L3.98411 13.93L3.87545 13.745L3.68631 13.6162L3.58168 13.4232L3.44887 13.2502L3.31607 13.0732L3.1551 12.9203L3.03437 12.7434L2.91766 12.5583L2.78888 12.3733L2.57157 12.2566L2.58767 12.1038L2.39047 12.0394L2.30194 11.8423L2.13694 11.7096L2.00414 11.5326L1.85926 11.3677L1.74255 11.1866L1.66609 10.9775L1.73048 10.8246L1.65402 10.6718L1.54939 10.543L1.56951 10.362L1.42061 10.2494V10.0764V9.85518L1.25159 9.68222L1.2878 9.46098L1.19927 9.25985L1.14293 9.0547L1.08256 8.85358L1.05037 8.6444L1.16305 8.41914L1.09061 8.20595L1.155 7.99276V7.75945L1.1711 7.53821L1.17915 7.43362L1.13488 7.26468L1.27976 7.15205L1.29183 6.93081L1.485 6.83025L1.65402 6.70957L1.73853 6.48833L1.9478 6.40386L2.03231 6.17457L2.18926 6.04183L2.38645 5.9292L2.41462 5.80852L2.39852 5.59131L2.38645 5.40225L2.32608 5.21319L2.26974 5.02011L2.14499 4.85921L2.02023 4.69428L1.97597 4.47304L1.70634 4.48511L1.62182 4.43684L1.40451 4.51327L1.19927 4.50522L0.965857 4.54545L0.837078 4.7506L0.712324 4.84312L0.660007 5.00402L0.519156 5.14883L0.426596 5.33387L0.28172 5.49879L0.253549 5.71601L0.21733 5.93322L0.136843 6.1263L0.104649 6.33547L0.0764784 6.42799L0.0523323 6.57683L0.0161133 6.74175L0.072454 6.90265L0.0885514 7.05953V7.26066L0.136843 7.46178L0.0281863 7.67498L0.152941 7.86806L0.108673 8.08527L0.160989 8.2864L0.301841 8.45937L0.285744 8.68061L0.378304 8.87771L0.503058 9.05068L0.571472 9.24778L0.555375 9.46902L0.583545 9.67819L0.712324 9.85921L0.833054 10.0402L0.76464 10.2856L0.861224 10.4747L0.981954 10.5672L1.10268 10.6838L1.13488 10.9131L1.22744 11.1022L1.44475 11.2228L1.46085 11.4481L1.61378 11.609L1.67012 11.8222L1.82304 11.9791L1.83914 12.2164L1.99609 12.3049L2.0645 12.4376L2.18926 12.5463L2.24962 12.6991L2.38242 12.8761L2.60376 12.9525L2.70035 13.1657L2.8251 13.3508L3.02632 13.4634L3.13498 13.6484L3.25168 13.7409L3.39253 13.8254L3.48107 13.9702L3.6018 14.0627L3.69838 14.1915L3.83119 14.3644L4.0324 14.457L4.11289 14.6822L4.26179 14.823L4.46703 14.9276L4.6602 15.0201L4.80508 15.1689L4.97812 15.2936L5.07873 15.5149L5.17531 15.5631L5.28397 15.6557L5.54555 15.6919L5.64616 15.8809L5.80311 16.0499L6.04457 16.0217L6.09286 16.1907L6.22969 16.2671L6.39871 16.3315L6.45103 16.5205L6.58786 16.5929L6.75285 16.6331L6.87761 16.7498L6.99834 16.8463L7.24382 16.8383L7.42894 16.9429L7.59394 17.0796L7.75894 17.2365H7.9843L8.17345 17.325L8.33844 17.502L8.53966 17.5704L8.78112 17.5382L8.96624 17.6629L9.12319 17.8278L9.3727 17.7916L9.55782 17.8922L9.73086 18.0249L9.89989 18.1657L10.1212 18.1979L10.2259 18.3226L10.411 18.2824L10.5438 18.3749L10.7048 18.399L10.8617 18.4393L10.9945 18.5599L11.1515 18.58L11.2963 18.6565L11.4452 18.7047L11.5941 18.7731L11.7953 18.8294L12.0288 18.8576L12.1938 19.0145L12.4272 18.9823L12.6284 19.0587L12.8216 19.1874L13.0107 19.2759L13.224 19.3081L13.4292 19.3845L13.6626 19.3483L13.8518 19.5012L13.9967 19.4087L14.1536 19.4368L14.3106 19.461L14.4635 19.4811L14.6043 19.6138L14.7814 19.5374L14.9867 19.5897L15.1758 19.7506L15.4052 19.7184L15.6104 19.7506L15.8237 19.7989L16.0249 19.8471L16.2382 19.8632L16.4515 19.8471L16.6527 19.9718L16.866 20.0121H17.0753L17.2886 19.9195L17.5019 19.9477H17.7152L17.8238 19.9638L17.9808 19.992L18.1538 19.9638L18.3027 19.8713L18.4516 19.8109L18.6247 19.8673L18.7856 19.9195H18.9466L19.1076 19.8753L19.2565 19.8069L19.4255 19.9115L19.5905 19.831V19.823ZM6.72468 2.14802L6.7931 2.35317L6.86956 2.55832L6.95005 2.7514L7.11907 2.89621L7.2237 3.10136L7.32431 3.15366L7.52955 3.23411L7.73479 3.31858L7.91186 3.43926H8.12918L8.31832 3.30249L8.48332 3.31858L8.64429 3.30651L8.82539 3.1979L8.99039 3.04907L9.17148 2.93644L9.28416 2.86001L9.34453 2.69107L9.40892 2.5543L9.46526 2.39742L9.53367 2.24054L9.56587 2.07964L9.52562 1.85438L9.49745 1.64521L9.50953 1.41592L9.44514 1.21078L9.34855 1.01769L9.2238 0.917132L9.06282 0.840704L8.97831 0.699915L8.7771 0.61142L8.64027 0.434429L8.46722 0.305708L8.23381 0.337888L8.03259 0.29364L7.81126 0.34191L7.66638 0.301685L7.50943 0.370068L7.35651 0.518902L7.19553 0.663713L7.0587 0.820591L6.99431 1.04183L6.84541 1.21078L6.79712 1.42397L6.73676 1.6613L6.72066 1.77393L6.74883 1.93483L6.73676 2.15205L6.72468 2.14802ZM9.49745 8.82944L9.32843 9.00241L9.32038 9.11102L9.33246 9.27594L9.43306 9.44086L9.39684 9.59774L9.31636 9.81898L9.41294 10.0161L9.49343 10.2132L9.47733 10.4224L9.54172 10.6195L9.55782 10.8286L9.58196 11.0378L9.63428 11.243L9.77916 11.4039L9.8194 11.6171L9.90391 11.8262L10.1413 11.9268L10.1856 12.148L10.2782 12.3572L10.4351 12.4014L10.576 12.4779L10.6967 12.5664L10.7732 12.7434L11.0026 12.7836L11.1555 12.9284L11.3245 13.041L11.4895 13.1858L11.735 13.2019L11.9201 13.3025L11.9684 13.4915L12.2179 13.4393L12.3789 13.6364L12.5881 13.6726L12.8014 13.7088L12.89 13.8053L13.067 13.7771L13.232 13.7329L13.3729 13.8496L13.5339 13.8817L13.6787 13.9863L13.892 14.0225L14.1093 14.0064L14.3226 14.0386L14.5399 14.0507L14.7573 14.0265L14.9585 14.0467L15.1637 14.1512L15.369 14.1874L15.5782 14.103L15.7955 14.1392L16.0008 14.0909L16.202 14.0265L16.4193 14.0105L16.6165 13.934L16.8338 13.9099L16.9264 13.8455L17.1115 13.7369L17.3087 13.6605L17.4656 13.5157L17.6669 13.4232L17.8641 13.3347L17.9566 13.1858L18.1498 13.0772L18.2061 12.8761L18.3228 12.7635L18.347 12.5221L18.4154 12.3854L18.5925 12.2969L18.689 12.1038L18.6206 11.8624L18.7575 11.6613L18.7896 11.4481L18.689 11.2188L18.7534 11.0097L18.846 10.7884L18.7414 10.6677L18.681 10.5229L18.6327 10.362L18.5039 10.2413L18.5603 10.0442L18.355 9.89541L18.2745 9.69831L18.1779 9.49316L18.0733 9.3041L17.9123 9.15124L17.7715 8.97425L17.5662 8.87771L17.3852 8.76508L17.2926 8.54786L17.0471 8.51568L16.9505 8.29042L16.8378 8.30249L16.6487 8.15366L16.4475 8.11745L16.2744 7.98069L16.0772 7.8399L15.9002 7.70716L15.7151 7.57039L15.5863 7.60257L15.4575 7.40949H15.2965L15.1154 7.48189L14.9706 7.38938L14.8297 7.29686L14.6888 7.20434L14.4393 7.30893L14.2703 7.12389L14.0289 7.18825L13.8397 7.05551L13.6345 6.98712L13.4131 7.02333L13.1958 6.97506L12.9825 7.00724L12.7612 7.07964L12.6324 7.04344L12.4755 7.13193H12.3105L12.1535 7.12791L11.9925 7.09975H11.8316L11.6706 7.12389L11.5378 7.24859L11.3486 7.18825L11.2199 7.29284L11.0227 7.3572L10.8496 7.51005L10.6444 7.57844L10.4512 7.679L10.2902 7.80772L10.1252 7.95253L10.0488 8.16975L9.90794 8.3226L9.73489 8.45535L9.5377 8.58407L9.50148 8.81335L9.49745 8.82944ZM15.216 8.78117L15.4253 8.76106L15.6386 8.82542H15.8519L16.045 8.94207L16.2261 9.04263L16.4314 9.10297L16.5642 9.20354L16.6567 9.32823L16.7332 9.44891L16.8861 9.59372L17.0069 9.75462L17.1035 9.95575L17.1638 10.1488L17.2926 10.3258L17.3489 10.5229L17.365 10.7401L17.4133 10.9493L17.361 11.1102L17.4053 11.2631L17.4415 11.424L17.4013 11.5768L17.3811 11.7417L17.4013 11.8825L17.2242 12.0434L17.1397 12.1158V11.8906L17.0592 11.6854L17.023 11.4843L16.9425 11.2912L16.858 11.0941L16.7815 10.901L16.705 10.712L16.5964 10.5269L16.4555 10.3781L16.3429 10.2011L16.2744 9.98391L16.0893 9.86323L15.9766 9.67819L15.8358 9.51729L15.7513 9.38455L15.5983 9.31214L15.5179 9.15929L15.4012 9.06677L15.2281 9.01045L15.1516 8.95012L14.9826 8.8938V8.69268L15.2201 8.77313L15.216 8.78117Z" fill="#6B3C30"/>
<path d="M59.3308 0.909102C57.8177 0.909102 56.5178 1.45214 55.4313 2.52616C54.3447 3.60017 53.8014 4.89543 53.8014 6.40387C53.8014 7.91232 54.3447 9.20757 55.4313 10.2856C56.5178 11.3636 57.8137 11.9027 59.3308 11.9027C60.848 11.9027 62.1318 11.3636 63.2023 10.2856C64.2687 9.20757 64.8039 7.91634 64.8039 6.40387C64.8039 4.8914 64.2687 3.59615 63.2023 2.52616C62.1358 1.44812 60.844 0.909102 59.3308 0.909102ZM61.1861 8.26228C60.6669 8.78119 60.0472 9.04265 59.3308 9.04265C58.6145 9.04265 57.9867 8.78119 57.4595 8.26228C56.9283 7.74337 56.6627 7.12391 56.6627 6.40387C56.6627 5.68384 56.9283 5.06839 57.4595 4.54949C57.9867 4.03058 58.6105 3.76912 59.3308 3.76912C60.0512 3.76912 60.6669 4.03058 61.1861 4.54949C61.7052 5.06839 61.9668 5.68786 61.9668 6.40387C61.9668 7.11988 61.7052 7.73935 61.1861 8.26228ZM92.6765 7.13597H100.826V1.41192H90.7368C89.9601 1.62109 89.5697 2.00725 89.5697 2.57443C89.5697 3.1416 89.9561 3.52777 90.7368 3.73694H97.9927V5.01208H89.8716V8.78119C89.8716 9.74659 90.1331 10.354 90.6482 10.6114C91.1674 10.8649 91.8153 10.9936 92.592 10.9936H100.79V8.67258H92.6765V7.14V7.13597ZM38.9878 0.909102C37.4747 0.909102 36.1788 1.45214 35.0923 2.52616C34.0057 3.60017 33.4624 4.89543 33.4624 6.40387C33.4624 7.91232 34.0057 9.20757 35.0923 10.2856C36.1788 11.3636 37.4787 11.9027 38.9878 11.9027C40.4969 11.9027 41.7888 11.3636 42.8592 10.2856C43.9297 9.20757 44.4609 7.91634 44.4609 6.40387C44.4609 4.8914 43.9257 3.59615 42.8592 2.52616C41.7928 1.44812 40.505 0.909102 38.9878 0.909102ZM40.8471 8.26228C40.3279 8.78119 39.7041 9.04265 38.9878 9.04265C38.2715 9.04265 37.6477 8.78119 37.1165 8.26228C36.5893 7.74337 36.3237 7.12391 36.3237 6.40387C36.3237 5.68384 36.5893 5.06839 37.1165 4.54949C37.6437 4.03058 38.2675 3.76912 38.9878 3.76912C39.7082 3.76912 40.3239 4.03058 40.8471 4.54949C41.3662 5.06839 41.6238 5.68786 41.6238 6.40387C41.6238 7.11988 41.3622 7.73935 40.8471 8.26228ZM70.0477 2.05954C70.0477 2.05954 70.0477 2.0515 70.0477 2.04345C70.0477 1.27515 69.4239 0.655683 68.6593 0.655683C67.8946 0.655683 67.2709 1.27917 67.2709 2.04345C67.2709 2.04748 67.2709 2.0515 67.2709 2.05954V14.4811H67.2749C67.2749 14.4811 67.2749 14.4892 67.2749 14.4932C67.2749 15.2615 67.8987 15.885 68.6633 15.885C69.4279 15.885 70.0517 15.2615 70.0517 14.4932C70.0517 14.4731 70.0517 14.457 70.0477 14.4369V2.05954ZM72.5709 14.5696C72.5709 15.1931 73.0257 15.6557 73.9311 15.885H79.1346V18.1617H79.1467C79.1467 18.93 79.7705 19.5495 80.5351 19.5495C81.2997 19.5495 81.9235 18.926 81.9235 18.1577C81.9235 18.1577 81.9235 18.1497 81.9235 18.1456V15.885H88.0686V13.2945H73.9271C73.0216 13.5197 72.5669 13.9461 72.5669 14.5696H72.5709ZM49.8777 2.04748C49.8777 2.04748 49.8777 2.03943 49.8777 2.03139C49.8777 1.26308 49.2539 0.643616 48.4893 0.643616C47.7247 0.643616 47.1009 1.26711 47.1009 2.03139C47.1009 2.03541 47.1009 2.03943 47.1009 2.04748V14.4811C47.1009 14.4851 47.1009 14.4892 47.1009 14.4932C47.1009 15.2615 47.7206 15.885 48.4893 15.885C49.2579 15.885 49.8777 15.2615 49.8777 14.4932C49.8777 14.4892 49.8777 14.4851 49.8777 14.4811V7.82382H51.9784V5.27354H49.8817V2.04748H49.8777ZM74.9372 8.50765C74.9372 9.56558 75.1948 10.2414 75.7059 10.531C76.217 10.8246 76.7924 10.9694 77.4323 10.9694H86.4509V8.41916H77.7744V2.0877C77.7744 2.08368 77.7744 2.07966 77.7744 2.07161C77.7744 1.28722 77.1385 0.651661 76.3538 0.651661C75.569 0.651661 74.9332 1.28722 74.9332 2.07161C74.9332 2.07564 74.9332 2.07966 74.9332 2.0877V8.50363L74.9372 8.50765ZM105.506 2.04345C105.506 1.27515 104.882 0.655683 104.114 0.655683C103.345 0.655683 102.725 1.27917 102.725 2.04345C102.725 2.04748 102.725 2.0515 102.725 2.05954L102.717 14.469C102.717 14.469 102.717 14.4851 102.717 14.4932C102.717 15.2615 103.337 15.885 104.106 15.885C104.874 15.885 105.494 15.2615 105.494 14.4932C105.494 14.4892 105.494 14.4851 105.494 14.4811L105.502 2.05954C105.502 2.05954 105.502 2.0515 105.502 2.04345H105.506Z" fill="#6B3C30"/>
<path d="M162.909 4.54143C162.764 3.86565 162.467 3.21802 162.004 2.679C161.77 2.40145 161.493 2.13194 161.199 1.90668C160.281 1.20274 159.207 0.848755 157.971 0.848755C156.575 0.848755 155.376 1.29928 154.37 2.20435C153.368 3.10941 152.865 4.1955 152.865 5.46662C152.865 6.73773 153.368 7.82382 154.37 8.72888C155.372 9.63395 156.571 10.0885 157.971 10.0885C159.211 10.0885 160.285 9.73452 161.199 9.02655C162.225 8.23814 162.954 7.02736 163.006 5.80048C163.018 5.39019 162.998 4.94369 162.913 4.54143H162.909ZM159.682 7.03138C159.203 7.46581 158.627 7.68705 157.967 7.68705C157.307 7.68705 156.728 7.46983 156.237 7.03138C155.75 6.59694 155.504 6.07402 155.504 5.47064C155.504 4.86726 155.746 4.34433 156.237 3.9099C156.728 3.47144 157.303 3.25423 157.967 3.25423C158.631 3.25423 159.203 3.47144 159.682 3.9099C160.161 4.34433 160.402 4.86726 160.402 5.47064C160.402 6.07402 160.161 6.59292 159.682 7.03138Z" fill="#6B3C30"/>
<path d="M144.417 4.54143C144.273 3.86565 143.975 3.21802 143.508 2.679C143.275 2.40145 142.997 2.13194 142.707 1.90668C141.79 1.20274 140.715 0.848755 139.476 0.848755C138.075 0.848755 136.88 1.29928 135.874 2.20435C134.872 3.10941 134.369 4.1955 134.369 5.46662C134.369 6.73773 134.872 7.82382 135.874 8.72888C136.876 9.63395 138.075 10.0885 139.476 10.0885C140.715 10.0885 141.79 9.73452 142.707 9.02655C143.729 8.23814 144.458 7.02736 144.51 5.80048C144.526 5.39019 144.502 4.94369 144.417 4.54143ZM141.19 7.03138C140.711 7.46581 140.136 7.68705 139.48 7.68705C138.824 7.68705 138.236 7.46983 137.749 7.03138C137.262 6.59694 137.017 6.07402 137.017 5.47064C137.017 4.86726 137.262 4.34433 137.749 3.9099C138.236 3.47144 138.812 3.25423 139.48 3.25423C140.148 3.25423 140.711 3.47144 141.19 3.9099C141.669 4.34433 141.91 4.86726 141.91 5.47064C141.91 6.07402 141.669 6.59292 141.19 7.03138Z" fill="#6B3C30"/>
<path d="M134.663 13.5077C134.18 13.5077 133.801 13.387 133.536 13.1416C133.266 12.9003 133.133 12.6106 133.133 12.2768C133.133 11.9429 133.266 11.6774 133.536 11.432C133.801 11.1907 134.18 11.066 134.663 11.066H145.742V13.5036H134.663V13.5077Z" fill="#6B3C30"/>
<path d="M119.141 15.9654V18.21C119.141 18.5881 119.294 18.9139 119.603 19.1874C119.913 19.461 120.275 19.5977 120.694 19.5977H129.717V17.1601H121.921V15.8849" fill="#6B3C30"/>
<path d="M155.991 16.8624V18.21C155.991 18.5881 156.144 18.9139 156.454 19.1874C156.764 19.461 157.126 19.5977 157.545 19.5977H167.992V17.1601H158.772V16.3033" fill="#6B3C30"/>
<path d="M162.016 13.5077H163.211V11.07H153.118C152.635 11.07 152.257 11.1907 151.991 11.4361C151.726 11.6774 151.589 11.959 151.589 12.2808C151.589 12.6026 151.722 12.9043 151.991 13.1456C152.257 13.387 152.635 13.5117 153.118 13.5117H159.231V14.453C159.231 14.453 159.231 14.4731 159.231 14.4851C159.231 15.2534 159.855 15.8769 160.624 15.8769C161.392 15.8769 162.016 15.2534 162.016 14.4851C162.016 14.4731 162.016 14.465 162.016 14.453V13.5117V13.5077Z" fill="#6B3C30"/>
<path d="M124.203 1.39582H120.871C120.851 0.623492 120.219 0 119.442 0C118.666 0 118.034 0.619469 118.014 1.39582H116.01C115.527 1.39582 115.149 1.51649 114.883 1.75784C114.617 1.9992 114.48 2.28077 114.48 2.60257C114.48 2.92438 114.613 3.22607 114.883 3.46742C115.153 3.70877 115.527 3.82945 116.01 3.82945H116.911C115.575 4.66613 114.907 5.80451 114.907 7.24457C114.907 8.35479 115.358 9.31617 116.259 10.1368C117.161 10.9574 118.231 11.3677 119.467 11.3677C120.702 11.3677 121.773 10.9574 122.674 10.1368C123.575 9.31617 124.026 8.35479 124.026 7.24457C124.026 5.80451 123.358 4.66211 122.022 3.82945H124.203V1.39582ZM120.783 8.44328C120.424 8.76911 119.986 8.93403 119.467 8.93403C118.947 8.93403 118.509 8.76911 118.151 8.44328C117.792 8.11746 117.611 7.71923 117.611 7.24859C117.611 6.77796 117.788 6.35961 118.139 6.04183C118.489 5.72405 118.931 5.56315 119.467 5.56315C120.002 5.56315 120.445 5.72405 120.795 6.04183C121.145 6.35961 121.322 6.76187 121.322 7.24859C121.322 7.73532 121.141 8.11746 120.783 8.44328Z" fill="#6B3C30"/>
<path d="M129.705 2.04748C129.705 2.04748 129.705 2.03943 129.705 2.03139C129.705 1.26308 129.085 0.643616 128.316 0.643616C127.547 0.643616 126.928 1.26711 126.928 2.03139C126.928 2.03541 126.928 2.03943 126.928 2.04748V14.4811C126.928 14.4851 126.928 14.4892 126.928 14.4932C126.928 15.2615 127.552 15.885 128.316 15.885C129.081 15.885 129.705 15.2615 129.705 14.4932C129.705 14.4892 129.705 14.4851 129.705 14.4811V7.82382H131.805V5.27354H129.705V2.04748Z" fill="#6B3C30"/>
<path d="M149.528 2.03139C149.528 1.26308 148.905 0.643616 148.14 0.643616C147.375 0.643616 146.752 1.26711 146.752 2.03139C146.752 2.03541 146.752 2.03943 146.752 2.04748L146.744 14.457C146.744 14.457 146.744 14.4731 146.744 14.4811C146.744 15.2494 147.363 15.8689 148.132 15.8689C148.901 15.8689 149.52 15.2494 149.52 14.4811C149.52 14.4771 149.52 14.4731 149.52 14.469L149.528 2.04748C149.528 2.04748 149.528 2.03943 149.528 2.03139Z" fill="#6B3C30"/>
<path d="M168 2.03139C168 1.26308 167.376 0.643616 166.612 0.643616C165.847 0.643616 165.223 1.26711 165.223 2.03139V11.0941H164.137V13.5278H165.219V14.457C165.219 14.457 165.219 14.4731 165.219 14.4811C165.219 15.2494 165.843 15.8689 166.612 15.8689C167.38 15.8689 168 15.2494 168 14.4811C168 14.4771 168 14.4731 168 14.469L168.008 2.04748C168.008 2.04748 168.008 2.03943 168.008 2.03139H168Z" fill="#6B3C30"/>
<path d="M121.921 16.9429V14.6661C121.921 13.8978 121.298 13.2784 120.533 13.2784C119.768 13.2784 119.141 13.9018 119.141 14.6661C119.141 14.6661 119.141 14.6742 119.141 14.6782V16.9389" fill="#6B3C30"/>
<path d="M158.768 17.9244V15.6476C158.768 14.8793 158.145 14.2599 157.38 14.2599C156.615 14.2599 155.988 14.8833 155.988 15.6476C155.988 15.6476 155.988 15.6557 155.988 15.6597V17.9204" fill="#6B3C30"/>
</g>
<defs>
<clipPath id="clip0_3088_321">
<rect width="168" height="20" fill="white"/>
</clipPath>
</defs>
</svg>
