<svg xmlns="http://www.w3.org/2000/svg" width="100" height="100" viewBox="0 0 100 100" fill="none">
                        <path d="M50 17.0908C60.188 17.0908 68.447 25.3502 68.4473 35.5381C68.4473 41.5594 65.5616 46.9065 61.0986 50.2734C73.0977 54.7691 81.6396 66.3407 81.6396 79.9092C81.6396 81.566 80.2965 82.9092 78.6396 82.9092C76.9828 82.9092 75.6396 81.566 75.6396 79.9092C75.6395 65.7489 64.1603 54.2695 50 54.2695C35.8397 54.2695 24.3605 65.7489 24.3604 79.9092C24.3604 81.566 23.0172 82.9092 21.3604 82.9092C19.7035 82.9092 18.3604 81.566 18.3604 79.9092C18.3604 66.341 26.9018 54.7693 38.9004 50.2734C34.4377 46.9065 31.5527 41.5592 31.5527 35.5381C31.553 25.3502 39.812 17.0908 50 17.0908ZM50 23.0908C43.1257 23.0908 37.553 28.6639 37.5527 35.5381C37.5527 42.4125 43.1256 47.9854 50 47.9854C56.8744 47.9853 62.4473 42.4125 62.4473 35.5381C62.447 28.6639 56.8743 23.0908 50 23.0908Z" fill="#101010"></path>
                    </svg>