<svg xmlns="http://www.w3.org/2000/svg" width="100" height="100" viewBox="0 0 100 100" fill="none">
                    <path d="M79.1798 74.9418L68.0479 63.9C72.3689 58.5123 74.4615 51.6738 73.8953 44.7907C73.3292 37.9076 70.1473 31.5029 65.004 26.8938C59.8607 22.2846 53.1469 19.8212 46.2431 20.0101C39.3393 20.199 32.7703 23.0259 27.8867 27.9094C23.0032 32.793 20.1763 39.362 19.9874 46.2658C19.7985 53.1696 22.2619 59.8834 26.8711 65.0267C31.4802 70.17 37.8849 73.3519 44.768 73.918C51.6511 74.4842 58.4896 72.3917 63.8772 68.0706L74.9191 79.1125C75.198 79.3937 75.5299 79.6169 75.8955 79.7692C76.2611 79.9216 76.6533 80 77.0494 80C77.4455 80 77.8377 79.9216 78.2033 79.7692C78.569 79.6169 78.9008 79.3937 79.1798 79.1125C79.7206 78.553 80.0229 77.8053 80.0229 77.0271C80.0229 76.249 79.7206 75.5013 79.1798 74.9418V74.9418ZM47.0445 68.0706C42.8904 68.0706 38.8296 66.8388 35.3756 64.5309C31.9216 62.223 29.2295 58.9427 27.6398 55.1049C26.0501 51.267 25.6341 47.0439 26.4446 42.9696C27.255 38.8953 29.2554 35.1529 32.1928 32.2155C35.1302 29.2781 38.8726 27.2777 42.9469 26.4673C47.0212 25.6569 51.2443 26.0728 55.0821 27.6625C58.92 29.2522 62.2003 31.9443 64.5082 35.3983C66.8161 38.8523 68.0479 42.9131 68.0479 47.0672C68.0479 52.6376 65.8351 57.98 61.8962 61.9189C57.9572 65.8578 52.6149 68.0706 47.0445 68.0706V68.0706Z" fill="black"></path>
                </svg>